<?xml version="1.0" standalone="no"?>
<!DOCTYPE svg PUBLIC "-//W3C//DTD SVG 20010904//EN"
 "http://www.w3.org/TR/2001/REC-SVG-20010904/DTD/svg10.dtd">
<svg version="1.0" xmlns="http://www.w3.org/2000/svg"
 width="1024.000000pt" height="1024.000000pt" viewBox="0 0 1024.000000 1024.000000"
 preserveAspectRatio="xMidYMid meet">
<metadata>
Created by potrace 1.14, written by Peter Selinger 2001-2017
</metadata>
<g transform="translate(0.000000,1024.000000) scale(0.100000,-0.100000)"
fill="#000000" stroke="none">
<path d="M5065 7674 c-447 -26 -843 -144 -1240 -368 -426 -242 -804 -623
-1054 -1063 -139 -245 -240 -544 -293 -863 -30 -183 -33 -640 -5 -820 74 -476
264 -908 575 -1310 94 -121 327 -350 462 -454 533 -409 1211 -623 1830 -576
510 38 960 194 1401 486 175 117 429 351 578 534 317 389 489 791 578 1350 25
157 25 606 1 755 -96 582 -336 1072 -722 1473 -512 531 -1186 831 -1921 855
-71 2 -157 3 -190 1z m479 -499 c571 -99 1071 -393 1429 -840 250 -312 410
-686 462 -1078 20 -156 20 -465 0 -606 -72 -493 -285 -927 -624 -1274 -192
-197 -364 -326 -582 -437 -375 -191 -814 -282 -1208 -250 -189 15 -276 30
-449 80 -288 83 -589 239 -822 427 -231 187 -470 488 -602 762 -220 454 -281
885 -197 1391 112 674 588 1297 1234 1616 248 122 557 212 805 234 150 14 394
3 554 -25z"/>
<path d="M4215 6241 c-11 -5 -29 -19 -40 -31 -18 -20 -20 -39 -23 -192 -5
-262 -9 -258 240 -258 98 0 178 -3 178 -7 0 -5 -9 -51 -20 -103 -25 -119 -25
-200 0 -318 51 -250 236 -471 475 -568 79 -33 115 -41 310 -74 198 -33 333
-167 342 -340 18 -329 -379 -528 -718 -358 -127 63 -210 159 -340 396 -21 37
-35 52 -50 52 -18 0 -95 -41 -328 -174 -30 -17 -63 -43 -74 -57 -19 -26 -19
-27 1 -73 40 -89 147 -231 257 -341 137 -137 268 -219 438 -276 145 -48 247
-63 400 -56 175 7 330 52 482 141 84 50 247 207 300 290 90 144 129 293 122
471 -7 208 -78 374 -221 523 -147 153 -334 251 -509 266 -165 15 -251 50 -326
131 -62 69 -85 132 -79 223 5 78 25 126 75 175 73 74 54 71 581 77 l474 5 24
28 c23 27 24 32 24 208 0 110 -4 188 -11 201 -26 49 -12 48 -1021 47 -519 0
-952 -4 -963 -8z"/>
</g>
</svg>
